<svg width="147" height="147" viewBox="0 0 147 147" fill="none" xmlns="http://www.w3.org/2000/svg">
<g clip-path="url(#clip0_67_199)">
<path d="M73.5 22.2922C55.8329 22.2922 41.459 36.6656 41.459 54.3327C41.459 71.9999 55.8329 86.3732 73.5 86.3732C91.1672 86.3732 105.541 71.9999 105.541 54.3327C105.541 36.6656 91.1672 22.2922 73.5 22.2922ZM73.5 77.7545C60.5849 77.7545 50.0771 67.2473 50.0771 54.3321C50.0771 41.417 60.5849 30.9104 73.5 30.9104C86.4152 30.9104 96.923 41.4176 96.923 54.3327C96.923 67.2478 86.4157 77.7545 73.5 77.7545Z" fill="#45454D"/>
<path d="M73.5 0C43.5411 0 19.1678 24.3732 19.1678 54.3321C19.1678 71.6098 33.6578 97.351 42.2949 111.157C47.9777 120.24 54.0845 128.884 59.4898 135.497C68.1659 146.111 71.2713 146.999 73.5006 146.999C75.7631 146.999 78.695 146.111 87.3441 135.491C92.7615 128.838 98.8712 120.199 104.548 111.164C113.244 97.324 127.833 71.5368 127.833 54.3316C127.833 24.3732 103.459 0 73.5 0ZM98.5736 104.453C87.4297 122.542 77.1989 134.765 73.4488 137.885C69.6793 134.861 59.6145 122.928 48.3149 104.51C35.2688 83.2437 27.7865 64.9543 27.7865 54.3321C27.786 29.1253 48.2931 8.61813 73.5 8.61813C98.7069 8.61813 119.214 29.1253 119.214 54.3321C119.215 64.8934 111.691 83.1615 98.5736 104.453Z" fill="#EFC84A"/>
</g>
<defs>
<clipPath id="clip0_67_199">
<rect width="147" height="147" fill="white"/>
</clipPath>
</defs>
</svg>
