<svg width="59" height="59" viewBox="0 0 59 59" fill="none" xmlns="http://www.w3.org/2000/svg">
<path d="M9.86611 23.1202C9.70681 23.1202 9.54423 23.0913 9.38756 23.029C8.71364 22.7642 8.38193 22.0031 8.64612 21.3292C11.0868 15.1152 16.1162 10.3427 22.4449 8.23511C23.1306 8.00501 23.874 8.37803 24.1028 9.06505C24.3316 9.75207 23.9599 10.4948 23.2729 10.7229C17.6836 12.5841 13.2416 16.7993 11.0868 22.2876C10.8842 22.8042 10.3899 23.1202 9.86611 23.1202Z" fill="#FECE46"/>
<path d="M29.5387 51.9672C28.8149 51.9672 28.2276 51.3798 28.2276 50.6561C28.2276 49.9323 28.8149 49.3449 29.5387 49.3449C40.4648 49.3449 49.3548 40.455 49.3548 29.5282C49.3548 28.8044 49.9422 28.217 50.6659 28.217C51.3897 28.217 51.977 28.8044 51.977 29.5282C51.977 41.9018 41.9116 51.9672 29.5387 51.9672Z" fill="#FECE46"/>
<path d="M29.5 59C13.2337 59 0 45.7663 0 29.5C0 13.2337 13.2337 0 29.5 0C34.0784 0 38.4687 1.0207 42.5456 3.03391C43.1946 3.35448 43.4607 4.14049 43.1401 4.79014C42.8202 5.43914 42.0342 5.70596 41.3839 5.38539C37.6715 3.5518 33.6726 2.62222 29.5 2.62222C14.6799 2.62222 2.62222 14.6799 2.62222 29.5C2.62222 44.3201 14.6799 56.3778 29.5 56.3778C44.3201 56.3778 56.3778 44.3201 56.3778 29.5C56.3778 24.3211 54.9021 19.2937 52.1108 14.9617C51.7181 14.3527 51.8938 13.5412 52.5028 13.1491C53.1118 12.7578 53.9227 12.9321 54.3154 13.5412C57.3795 18.2979 59 23.8163 59 29.5C59 45.7663 45.7663 59 29.5 59Z" fill="#FECE46"/>
<path d="M51.863 7.19151H49.9382V5.2668C49.9382 4.54307 49.3509 3.95569 48.6271 3.95569C47.9034 3.95569 47.316 4.54307 47.316 5.2668V7.19151H45.3913C44.6676 7.19151 44.0802 7.77889 44.0802 8.50262C44.0802 9.22636 44.6676 9.81373 45.3913 9.81373H47.316V11.7384C47.316 12.4622 47.9034 13.0496 48.6271 13.0496C49.3509 13.0496 49.9382 12.4622 49.9382 11.7384V9.81373H51.863C52.5867 9.81373 53.1741 9.22636 53.1741 8.50262C53.1741 7.77889 52.5873 7.19151 51.863 7.19151Z" fill="#FECE46"/>
<path d="M39.317 33.9637H22.8487L25.9548 30.8577C26.4668 30.3457 26.4668 29.5157 25.9548 29.0037C25.4434 28.4918 24.6122 28.4918 24.1009 29.0037L18.7574 34.3472C18.6958 34.4081 18.6414 34.4757 18.5929 34.5484C18.5719 34.5792 18.5581 34.6133 18.5398 34.6455C18.5162 34.6881 18.4906 34.7287 18.4723 34.7739C18.4546 34.8166 18.4447 34.8611 18.4316 34.9051C18.4205 34.9431 18.406 34.9791 18.3982 35.0185C18.3647 35.1876 18.3647 35.3626 18.3982 35.5318C18.406 35.5711 18.4205 35.6072 18.4316 35.6452C18.4447 35.6891 18.4546 35.7337 18.4723 35.7763C18.4906 35.8215 18.5162 35.8622 18.5398 35.9048C18.5575 35.9369 18.5719 35.971 18.5929 36.0018C18.6414 36.0739 18.6958 36.1414 18.7574 36.2031L24.1009 41.5465C24.3565 41.8028 24.6922 41.9306 25.0278 41.9306C25.3635 41.9306 25.6991 41.8028 25.9548 41.5465C26.4668 41.0345 26.4668 40.2046 25.9548 39.6926L22.8487 36.5866H39.317C40.0407 36.5866 40.6281 35.9992 40.6281 35.2754C40.6281 34.5517 40.0407 33.9637 39.317 33.9637Z" fill="#0E3145"/>
<path d="M40.4058 24.2037C40.4176 24.186 40.4248 24.1664 40.436 24.1487C40.4694 24.0936 40.5015 24.0385 40.5264 23.9789C40.5369 23.954 40.5415 23.9271 40.5507 23.9015C40.5697 23.8465 40.59 23.7927 40.6012 23.7344C40.6182 23.6498 40.6274 23.5626 40.6274 23.4754C40.6274 23.3882 40.6182 23.301 40.6012 23.2165C40.5894 23.1588 40.5691 23.1044 40.5507 23.0493C40.5415 23.0237 40.5369 22.9969 40.5264 22.972C40.5015 22.9123 40.4688 22.8566 40.436 22.8022C40.4255 22.7845 40.4176 22.7641 40.4058 22.7471C40.358 22.6756 40.3036 22.6088 40.2426 22.5485L34.8992 17.205C34.3872 16.693 33.5572 16.693 33.0453 17.205C32.5333 17.717 32.5333 18.547 33.0453 19.0589L36.1513 22.165H19.6831C18.9593 22.165 18.3719 22.7523 18.3719 23.4761C18.3719 24.1998 18.9593 24.7872 19.6831 24.7872H36.1513L33.0453 27.8932C32.5333 28.4052 32.5333 29.2351 33.0453 29.7471C33.3016 30.0034 33.6366 30.1313 33.9722 30.1313C34.3078 30.1313 34.6428 30.0034 34.8992 29.7471L40.2426 24.4037C40.3036 24.3421 40.358 24.2752 40.4058 24.2037Z" fill="#0E3145"/>
</svg>
